HIERARCHY
ROOT Hips
{
	OFFSET 0.00000 0.00000 0.00000
	CHANNELS 6 Xposition Yposition Zposition Zrotation Yrotation Xrotation 
	JOINT LHipJoint
	{
		OFFSET 0 0 0
		CHANNELS 3 Zrotation Yrotation Xrotation
		JOINT LeftUpLeg
		{
			OFFSET 1.62964 -1.40469 0.78906
			CHANNELS 3 Zrotation Yrotation Xrotation
			JOINT LeftLeg
			{
				OFFSET 2.29640 -6.30932 0.00000
				CHANNELS 3 Zrotation Yrotation Xrotation
				JOINT LeftFoot
				{
					OFFSET 2.29451 -6.30412 0.00000
					CHANNELS 3 Zrotation Yrotation Xrotation
					JOINT LeftToeBase
					{
						OFFSET 0.03611 -0.09921 1.56387
						CHANNELS 3 Zrotation Yrotation Xrotation
						End Site
						{
							OFFSET 0.00000 -0.00000 0.80291
						}
					}
				}
			}
		}
	}
	JOINT RHipJoint
	{
		OFFSET 0 0 0
		CHANNELS 3 Zrotation Yrotation Xrotation
		JOINT RightUpLeg
		{
			OFFSET -1.73712 -1.40469 0.78906
			CHANNELS 3 Zrotation Yrotation Xrotation
			JOINT RightLeg
			{
				OFFSET -2.28137 -6.26801 0.00000
				CHANNELS 3 Zrotation Yrotation Xrotation
				JOINT RightFoot
				{
					OFFSET -2.28681 -6.28298 0.00000
					CHANNELS 3 Zrotation Yrotation Xrotation
					JOINT RightToeBase
					{
						OFFSET -0.15927 -0.43759 1.61103
						CHANNELS 3 Zrotation Yrotation Xrotation
						End Site
						{
							OFFSET -0.00000 -0.00000 0.84630
						}
					}
				}
			}
		}
	}
	JOINT LowerBack
	{
		OFFSET 0 0 0
		CHANNELS 3 Zrotation Yrotation Xrotation
		JOINT Spine
		{
			OFFSET -0.04227 2.04338 -0.00225
			CHANNELS 3 Zrotation Yrotation Xrotation
			JOINT Spine1
			{
				OFFSET -0.02148 2.04482 -0.04273
				CHANNELS 3 Zrotation Yrotation Xrotation
				JOINT Neck
				{
					OFFSET 0 0 0
					CHANNELS 3 Zrotation Yrotation Xrotation
					JOINT Neck1
					{
						OFFSET 0.09180 1.44629 0.19359
						CHANNELS 3 Zrotation Yrotation Xrotation
						JOINT Head
						{
							OFFSET 0.00887 1.40645 0.14750
							CHANNELS 3 Zrotation Yrotation Xrotation
							End Site
							{
								OFFSET -0.00669 1.50671 0.03707
							}
						}
					}
				}
				JOINT LeftShoulder
				{
					OFFSET 0 0 0
					CHANNELS 3 Zrotation Yrotation Xrotation
					JOINT LeftArm
					{
						OFFSET 2.17674 1.86763 -0.06520
						CHANNELS 3 Zrotation Yrotation Xrotation
						JOINT LeftForeArm
						{
							OFFSET 4.65776 -0.00000 0.00000
							CHANNELS 3 Zrotation Yrotation Xrotation
							JOINT LeftHand
							{
								OFFSET 3.55539 -0.00000 0.00000
								CHANNELS 3 Zrotation Yrotation Xrotation
								JOINT LeftFingerBase
								{
									OFFSET 0 0 0
									CHANNELS 3 Zrotation Yrotation Xrotation
									JOINT LeftHandIndex1
									{
										OFFSET 0.70726 -0.00000 0.00000
										CHANNELS 3 Zrotation Yrotation Xrotation
										End Site
										{
											OFFSET 0.57022 -0.00000 0.00000
										}
									}
								}
								JOINT LThumb
								{
									OFFSET 0 0 0
									CHANNELS 3 Zrotation Yrotation Xrotation
									End Site
									{
										OFFSET 0.57892 -0.00000 0.57892
									}
								}
							}
						}
					}
				}
				JOINT RightShoulder
				{
					OFFSET 0 0 0
					CHANNELS 3 Zrotation Yrotation Xrotation
					JOINT RightArm
					{
						OFFSET -2.80694 1.55459 -0.32496
						CHANNELS 3 Zrotation Yrotation Xrotation
						JOINT RightForeArm
						{
							OFFSET -4.71925 -0.00000 -0.00000
							CHANNELS 3 Zrotation Yrotation Xrotation
							JOINT RightHand
							{
								OFFSET -3.56990 -0.00000 0.00000
								CHANNELS 3 Zrotation Yrotation Xrotation
								JOINT RightFingerBase
								{
									OFFSET 0 0 0
									CHANNELS 3 Zrotation Yrotation Xrotation
									JOINT RightHandIndex1
									{
										OFFSET -0.50776 -0.00000 0.00000
										CHANNELS 3 Zrotation Yrotation Xrotation
										End Site
										{
											OFFSET -0.40937 -0.00000 0.00000
										}
									}
								}
								JOINT RThumb
								{
									OFFSET 0 0 0
									CHANNELS 3 Zrotation Yrotation Xrotation
									End Site
									{
										OFFSET -0.41562 -0.00000 0.41562
									}
								}
							}
						}
					}
				}
			}
		}
	}
}
MOTION
Frames: 16
Frame Time: 0.0555556
0.00 0.00 0.00 0 0 0 0 0 0 -21 0 0 0 0 0 0 0 0 0 0 0 0 0 0 21 0 0 0 0 0 0 0 0 0 0 0 0 0 0 0 0 0 0 0 0 0 0 -16 0 0 21 0 0 11 0 0 0 -8 0 0 0 0 0 0 0 0 0 0 0 0 0 0 0 0 0 0 0 0 8 0 0 0 0 0 0 0 0 0 0 0 0 0 0 0 0 0
0.00 0.00 0.00 -180.5850 5.4332 -151.6740 0.0000 0.0000 0.0000 -15.0132 -18.6620 -22.7766 0.1667 2.6302 7.2509 0.1648 1.8557 -8.5839 6.2889 -14.7026 -46.1304 0.0000 0.0000 0.0000 15.5832 16.8511 -24.8696 -0.3177 -3.6234 10.0195 -1.2270 -3.1472 -22.2725 -1.9022 8.6593 -24.7354 -5.1180 -1.6949 -26.0547 -0.5315 -0.0881 -1.8411 2.3640 -0.0723 12.5381 15.7951 -4.7517 19.2527 -14.7109 -5.0683 -24.1217 -7.5828 -1.6474 -11.9263 -0.0000 0.0000 0.0000 -78.6298 4.2914 30.1822 14.8145 -23.8870 -3.1504 -0.0000 -0.0000 4.5658 20.5025 -15.7586 -5.7988 -7.1250 0.0000 -0.0000 -4.8115 13.2570 3.5929 -0.0000 0.0000 0.0000 89.1863 -7.9715 13.0306 -15.9036 25.3898 -3.6045 0.0000 0.0000 2.9018 -10.2168 -48.8166 7.7246 7.1250 -0.0000 -0.0000 53.8802 -73.3101 -38.9007
0.00 0.00 0.00 -181.7710 4.1985 -141.6700 0.0000 0.0000 0.0000 -8.2374 -25.1789 -43.4048 1.3163 7.2668 20.5083 0.4197 1.5610 -12.9056 6.0003 -14.4287 -44.9830 0.0000 0.0000 0.0000 8.5955 21.8408 -44.2524 -1.4421 -7.5919 21.4813 -1.6398 -5.1349 -26.5004 -1.9046 8.6645 -24.7514 -4.7068 -2.2391 -19.0993 -0.2600 -1.5673 -1.9076 2.0085 -0.7571 8.7710 17.7882 -6.6545 26.1489 -16.0942 -6.2990 -35.6154 -10.0383 -1.9351 -19.5428 -0.0000 -0.0000 0.0000 -56.4283 23.9345 45.4713 25.2090 -36.4168 -8.4137 -0.0000 0.0000 -6.7637 27.7362 -16.3111 -8.4006 -7.1250 0.0000 -0.0000 -0.0243 11.6848 0.0189 -0.0000 -0.0000 0.0000 77.7044 -30.5644 25.0726 -26.7927 37.9808 -9.3713 0.0000 -0.0000 -4.9738 -10.7251 -48.2326 8.0409 7.1250 -0.0000 -0.0000 51.7949 -73.1828 -37.0710
0.00 0.00 0.00 -181.9450 5.0700 -136.6750 0.0000 0.0000 0.0000 -4.0486 -24.8175 -61.4992 4.3782 12.6473 38.0622 0.8776 -3.2805 -16.9011 5.2666 -13.6779 -41.9622 0.0000 0.0000 0.0000 3.5620 23.7587 -61.1762 -4.2933 -12.5408 37.6728 -2.6155 -5.3296 -32.7832 -3.3699 11.2710 -33.1993 -4.3513 -2.1448 -14.9888 -0.1672 -1.8665 -1.7254 1.9127 -0.9159 6.7122 15.7098 -7.7623 29.8024 -12.2862 -6.5159 -40.7541 -9.0048 -2.3669 -25.2448 0.0000 -0.0000 0.0000 -51.4209 31.3770 50.6271 31.5995 -42.2256 -12.4709 -0.0000 0.0000 -9.8924 29.7283 -18.3310 -10.1816 -7.1250 0.0000 -0.0000 1.0487 9.0991 -0.8698 0.0000 -0.0000 0.0000 76.3713 -36.0613 27.3999 -37.1669 46.2989 -16.3606 0.0000 -0.0000 -8.3837 -10.8693 -45.7878 7.8363 7.1250 -0.0000 -0.0000 45.3072 -71.7648 -30.6423
0.00 0.00 0.00 -181.8520 6.4551 -133.1220 0.0000 0.0000 0.0000 -1.9710 -22.1360 -78.0532 9.1639 16.9121 56.6553 1.4057 -7.9150 -21.2077 5.0162 -13.4021 -40.8928 0.0000 0.0000 0.0000 -1.6982 25.5956 -77.1267 -8.7587 -16.6499 55.2518 -3.6369 -5.2315 -38.1106 -2.5519 9.9316 -28.7556 -4.8242 -2.0728 -11.5122 -0.0070 -1.9811 -1.6283 2.4071 -0.9895 4.9168 13.4578 -8.1723 31.7157 -7.0440 -4.7883 -45.2822 -6.8594 -2.0790 -30.6625 -0.0000 0.0000 0.0000 -49.1844 38.1402 51.6950 39.1334 -47.5480 -17.7971 -0.0000 0.0000 -10.7927 31.0198 -20.4589 -11.8700 -7.1250 0.0000 -0.0000 1.5842 6.4627 -1.3964 -0.0000 0.0000 0.0000 77.1107 -37.8141 27.0062 -45.7860 51.1478 -22.8492 0.0000 -0.0000 -11.2530 -10.3298 -42.8619 7.0678 7.1250 -0.0000 -0.0000 39.5829 -69.5637 -24.5747
0.00 0.00 0.00 -181.2800 8.6130 -131.2730 0.0000 0.0000 0.0000 -0.8053 -19.1878 -91.2300 15.0138 19.3932 75.2782 2.2835 -10.1226 -27.1674 3.8276 -11.9274 -35.4756 0.0000 0.0000 0.0000 -7.4473 28.1800 -90.9536 -14.0510 -19.1294 72.3602 -4.9620 -2.5453 -43.1770 -1.8846 8.6214 -24.6179 -5.0131 -2.1482 -7.7617 -0.0912 -2.3426 -1.1216 2.4716 -1.1846 3.3887 15.1835 -6.8985 28.6770 -10.7301 -1.6664 -47.6186 -12.6551 -1.3137 -34.0867 0.0000 -0.0000 0.0000 -54.5039 41.9519 41.7988 47.5237 -51.9466 -24.2101 -0.0000 0.0000 -10.0581 35.9939 -23.7977 -16.3359 -7.1250 0.0000 -0.0000 4.0707 1.4495 -3.9765 0.0000 -0.0000 0.0000 80.5227 -30.9327 23.5987 -48.9173 52.5494 -25.3120 0.0000 -0.0000 -10.8128 -11.8924 -36.8149 7.1924 7.1250 -0.0000 -0.0000 28.5753 -65.2221 -14.5062
0.00 0.00 0.00 -180.4270 22.2568 -134.0240 0.0000 0.0000 0.0000 -6.5419 -15.0228 -94.8735 21.2455 19.9628 93.6438 4.3366 -8.1859 -38.0791 1.9261 -8.7104 -24.8936 0.0000 0.0000 0.0000 -16.9483 34.1357 -100.3432 -19.5092 -19.9942 88.5648 -5.6629 4.1458 -44.4934 -2.8220 10.4012 -30.2860 -5.3212 -3.3347 -2.8264 -1.5045 -4.1705 -0.9017 1.2668 -2.0381 0.9246 6.1201 -0.5800 30.9843 -8.9312 6.3157 -50.1741 -13.5405 2.1646 -38.4507 -0.0000 -0.0000 0.0000 -69.4888 12.1019 27.6156 52.6171 -53.9980 -28.2780 -0.0000 0.0000 -10.1751 40.9880 -29.1547 -22.9434 -7.1250 0.0000 -0.0000 5.7478 -6.3216 -6.3764 -0.0000 -0.0000 0.0000 88.9059 -7.1225 29.4525 -53.2876 54.2384 -28.8213 0.0000 -0.0000 -22.3890 -24.8803 -44.4401 17.9893 7.1250 -0.0000 -0.0000 26.3705 -75.9507 -19.4580
0.00 0.00 0.00 -181.3100 26.0626 -137.5010 0.0000 0.0000 0.0000 -10.3866 -15.3067 -88.3002 20.5036 19.9939 91.4725 3.9794 -2.5232 -37.2706 3.6002 -11.6085 -34.3607 0.0000 0.0000 0.0000 -15.6119 34.7069 -93.8666 -18.5548 -19.9498 85.7711 -5.2724 6.7072 -42.4408 -3.0194 10.7265 -31.3628 -4.4809 -4.8084 -3.5826 -1.5968 -6.0910 -0.4537 0.5266 -3.0131 1.8283 5.8022 1.5574 30.4906 -11.4575 8.5209 -50.7428 -16.1067 2.9096 -37.1934 0.0000 -0.0000 0.0000 -68.3840 -9.9452 34.0360 56.5974 -55.3329 -31.5258 -0.0000 0.0000 -9.0957 36.4001 -30.3184 -20.4140 -7.1250 0.0000 -0.0000 2.9166 -5.9783 -3.2085 0.0000 -0.0000 0.0000 88.9480 -12.0922 35.8530 -78.2690 59.4736 -49.8586 0.0000 -0.0000 -9.6774 -14.4206 -37.8548 8.9671 7.1250 -0.0000 -0.0000 27.1309 -66.8407 -14.7217
0.00 0.00 0.00 -181.3810 30.3210 -140.3870 0.0000 0.0000 0.0000 -13.9375 -13.4796 -81.0656 18.7545 19.9628 86.3563 3.1004 2.5395 -34.2769 5.4450 -13.8681 -42.7115 0.0000 0.0000 0.0000 -12.5663 35.5586 -85.8907 -16.4679 -19.6982 79.6228 -4.4603 7.3597 -38.7404 -3.0762 10.8174 -31.6666 -4.3012 -6.8137 -4.9618 -1.3009 -8.6930 -0.6037 0.3890 -4.3102 2.5704 4.6898 3.9309 29.6198 -12.5062 11.7822 -51.8888 -17.7142 4.0173 -36.7827 -0.0000 -0.0000 0.0000 -63.7036 -23.5203 39.3663 70.1771 -58.4619 -42.9215 -0.0000 0.0000 -13.8353 35.6452 -29.0556 -19.2021 -7.1250 0.0000 -0.0000 2.7798 -4.3434 -2.9857 -0.0000 -0.0000 0.0000 86.7637 -18.8611 40.3399 -103.3580 59.3149 -71.5417 0.0000 -0.0000 -7.8057 -12.4632 -38.0057 7.7498 7.1250 -0.0000 -0.0000 29.4861 -66.3944 -15.7923
0.00 0.00 0.00 -181.0370 37.3501 -142.2900 0.0000 0.0000 0.0000 -17.5691 -9.9992 -73.1093 15.7707 19.5656 77.5477 1.4354 8.0827 -26.8424 7.4992 -15.7383 -50.7382 0.0000 0.0000 0.0000 -9.2762 36.0906 -77.0760 -13.2750 -18.8792 69.9776 -2.8592 11.5700 -30.5076 -1.8749 8.6005 -24.5533 -4.6432 -9.5363 -7.9908 -0.6419 -12.1222 -1.3527 0.4417 -5.9946 3.8066 4.4493 9.8390 27.5217 -22.4751 17.6395 -54.8453 -26.2086 7.1120 -32.5553 -0.0000 -0.0000 0.0000 -54.5905 -29.8075 41.4812 93.3194 -59.9583 -62.8743 -0.0000 0.0000 -14.1531 32.1653 -29.8509 -17.3815 -7.1250 0.0000 -0.0000 0.6394 -4.1532 -0.6841 -0.0000 -0.0000 0.0000 82.7115 -25.4431 42.8773 -123.4111 55.3303 -88.4812 0.0000 -0.0000 -14.3854 -6.3060 -38.6907 3.9517 7.1250 -0.0000 -0.0000 36.8840 -65.1814 -19.1685
0.00 0.00 0.00 -179.9320 48.3951 -144.3570 0.0000 0.0000 0.0000 -20.9593 -5.0251 -61.6380 11.1395 18.0027 63.2337 -0.3164 13.9487 -15.5815 8.5479 -16.5078 -54.5132 0.0000 0.0000 0.0000 -3.2711 35.5004 -64.3367 -8.6223 -16.5584 54.7745 -0.1272 16.7704 -13.0089 -0.3032 3.5406 -9.7877 -4.1156 -11.2673 -11.5917 -0.7105 -14.1794 -2.8269 -0.7116 -6.9247 4.1606 -1.8294 16.7305 22.3029 -26.9912 22.6113 -57.6045 -25.2757 12.1848 -27.8957 -0.0000 -0.0000 0.0000 -49.2326 -29.6428 47.7132 115.6483 -57.3622 -82.0154 -0.0000 0.0000 -10.3270 30.4911 -29.8488 -16.3343 -7.1250 0.0000 -0.0000 -0.3116 -3.6806 0.3309 -0.0000 -0.0000 0.0000 81.7051 -29.4958 41.9880 -132.1176 52.1049 -95.5071 0.0000 -0.0000 -14.0122 -5.9600 -38.7036 3.7350 7.1250 -0.0000 -0.0000 37.2518 -65.0937 -19.3101
0.00 0.00 0.00 -179.0610 60.0769 -145.9050 0.0000 0.0000 0.0000 -22.8321 -3.0662 -50.1451 6.7911 15.1534 48.0798 -1.4778 21.2023 -4.2987 8.4946 -16.4713 -54.3253 0.0000 0.0000 0.0000 1.2700 33.0928 -53.6223 -4.8105 -13.1672 39.9975 0.7854 15.8742 9.7849 -0.3179 -3.6244 10.0224 -4.0117 -11.9511 -16.2478 -0.9363 -14.6935 -3.5607 -1.9427 -7.0773 5.7772 -12.8774 20.9547 12.8158 -20.7456 26.7042 -55.7707 -16.6458 15.7009 -25.3757 -0.0000 -0.0000 0.0000 -54.2475 -26.1993 56.3737 124.2751 -55.0587 -89.1907 -0.0000 0.0000 -8.0049 28.0237 -30.3424 -15.0492 -7.1250 0.0000 -0.0000 -1.8087 -3.5533 1.9183 -0.0000 -0.0000 0.0000 81.9151 -27.1507 43.5341 -132.8596 51.7750 -96.0914 0.0000 -0.0000 -17.2973 -6.3769 -39.2785 4.0471 7.1250 -0.0000 -0.0000 37.6487 -65.6573 -20.0230
0.00 0.00 0.00 -174.3550 74.0048 -143.2010 0.0000 0.0000 0.0000 -21.4513 -7.4611 -37.5828 3.2584 11.1021 32.6249 -3.9286 36.1961 3.1917 6.9730 -15.3091 -48.7721 0.0000 0.0000 0.0000 8.1572 27.2870 -44.6926 -1.7213 -8.2597 23.5057 -3.1353 3.3012 34.7584 -0.0629 -1.6178 4.4506 -3.3089 -12.1483 -22.1732 -0.6193 -14.6726 -4.0115 -3.1044 -6.9129 8.2759 -16.9044 23.8247 11.8129 -22.7730 31.1097 -59.8493 -20.5948 16.8019 -29.6590 0.0000 -0.0000 0.0000 -60.8514 -21.4380 65.3118 127.5303 -53.9443 -91.8412 -0.0000 0.0000 -10.0623 26.1853 -31.1258 -14.2620 -7.1250 0.0000 -0.0000 -2.9905 -3.9160 3.1920 0.0000 -0.0000 0.0000 82.4911 -20.8730 48.1884 -129.9040 53.0341 -93.7492 0.0000 -0.0000 -20.9134 -2.2622 -41.1515 1.4891 7.1250 -0.0000 -0.0000 44.5569 -65.8427 -24.4943
0.00 0.00 0.00 -65.5711 87.1533 -35.4550 0.0000 0.0000 0.0000 -19.7897 -14.9412 -29.8708 2.1124 9.0964 26.0973 -1.1726 37.1930 21.1939 6.3345 -14.7448 -46.3098 0.0000 0.0000 0.0000 13.8123 22.7062 -41.9163 -1.0092 -6.3922 17.9266 -3.7572 -12.0798 35.1342 -0.1299 2.3234 -6.4002 -2.7281 -11.4520 -27.1136 0.6391 -13.6687 -5.5850 -2.4641 -6.3155 9.1976 35.9162 -26.4328 -17.2402 -31.9997 -50.1887 -17.9417 -4.8202 -24.1033 -27.6293 0.0000 0.0000 0.0000 -67.9603 -15.4307 72.6958 127.4971 -53.9564 -91.8143 -0.0000 0.0000 -9.0438 25.9316 -32.5282 -14.6529 -7.1250 0.0000 -0.0000 -3.3790 -5.3082 3.6833 0.0000 0.0000 0.0000 81.7715 -15.5980 54.0894 -126.0006 54.4865 -90.6002 0.0000 -0.0000 -23.4754 4.4655 -42.5306 -3.0219 7.1250 -0.0000 -0.0000 52.9803 -64.7989 -28.9991
0.00 0.00 0.00 1.0887 29.6862 24.3352 0.0000 0.0000 0.0000 -28.9655 -7.6779 -35.4588 4.6359 12.9617 39.2251 0.8790 25.9902 23.5299 3.5438 -11.5273 -34.0795 0.0000 0.0000 0.0000 17.0290 22.9871 -41.0719 -2.4513 -9.7488 28.1671 -2.5612 -1.7428 29.8414 -1.5308 7.8116 -22.1432 -2.8912 -7.6828 -29.3092 2.7233 -9.1661 -6.5915 1.3325 -4.3361 9.4790 -13.5351 -23.0338 -12.4231 15.6589 -30.7358 4.9022 2.6407 -14.2446 7.8533 -0.0000 -0.0000 0.0000 -73.3288 -7.2957 72.3753 128.5190 -53.5756 -92.6386 -0.0000 0.0000 -0.3836 25.1131 -30.1425 -13.2444 -7.1250 0.0000 -0.0000 -3.4387 -2.6395 3.5998 -0.0000 -0.0000 0.0000 86.8331 -3.2766 66.4428 -109.2812 58.5476 -76.6165 0.0000 -0.0000 -25.6425 22.1204 -47.1404 -16.5916 7.1250 -0.0000 -0.0000 74.7342 -62.0816 -42.4187
0.00 0.00 0.00 5.1433 -6.0241 23.3360 0.0000 0.0000 0.0000 -24.3907 -10.4949 -39.5440 6.4673 14.8664 46.8297 0.3824 27.4396 21.6221 4.2212 -12.4491 -37.3398 0.0000 0.0000 0.0000 15.2797 21.8848 -41.0716 -2.0567 -8.9831 25.7425 -1.7633 0.3113 25.2445 -2.4304 9.7102 -28.0432 -3.5778 -8.0394 -26.8973 4.5658 -10.0200 -4.7096 3.5250 -4.9327 10.9678 -9.4561 -19.0168 -18.3900 14.2070 -26.2477 11.5406 2.0068 -11.5149 9.7526 0.0000 0.0000 0.0000 -61.5762 3.5087 61.8021 137.3941 -49.5402 -99.5996 -0.0000 0.0000 -10.3396 26.0032 -28.9128 -13.2702 -7.1250 0.0000 -0.0000 -2.7298 -1.5604 2.8063 0.0000 0.0000 0.0000 84.9799 0.0775 64.0514 -88.5324 59.9919 -58.7291 0.0000 -0.0000 -21.9310 20.3391 -49.0254 -15.6353 7.1250 -0.0000 -0.0000 76.7084 -63.3446 -46.1613
